<?xml version="1.0" standalone="no"?>
<!DOCTYPE svg PUBLIC "-//W3C//DTD SVG 20010904//EN"
 "http://www.w3.org/TR/2001/REC-SVG-20010904/DTD/svg10.dtd">
<svg version="1.0" xmlns="http://www.w3.org/2000/svg"
 width="512.000000pt" height="512.000000pt" viewBox="0 0 512.000000 512.000000"
 preserveAspectRatio="xMidYMid meet">
<metadata>
Created by potrace 1.11, written by Peter Selinger 2001-2013
</metadata>
<g transform="translate(0.000000,512.000000) scale(0.100000,-0.100000)"
fill="#000000" stroke="none">
<path d="M771 4573 c-212 -213 -418 -422 -458 -463 l-74 -76 57 -62 c135 -149
362 -277 603 -338 113 -29 279 -36 349 -14 l44 14 322 -325 c177 -178 411
-416 521 -529 109 -113 255 -263 325 -335 173 -179 1032 -1081 1158 -1216 l53
-57 -57 -51 c-91 -83 -192 -163 -299 -236 -55 -38 -102 -70 -105 -73 -3 -2 31
-39 76 -81 229 -217 530 -405 794 -495 167 -56 239 -69 395 -70 149 -1 200 9
317 61 51 23 58 30 82 82 45 101 60 176 60 311 1 142 -16 238 -70 398 -90 271
-274 568 -505 816 l-64 68 -57 -83 c-57 -84 -160 -215 -253 -322 l-49 -58
-1207 1207 -1208 1208 15 29 c24 46 44 155 44 245 0 248 -126 524 -345 750
l-80 84 -384 -389z m564 -189 c58 -146 70 -309 28 -418 -24 -64 -83 -130 -135
-151 -102 -41 -294 -10 -478 76 l-84 40 299 299 299 299 22 -39 c12 -21 34
-69 49 -106z"/>
<path d="M4553 4884 c-299 -421 -656 -804 -1025 -1102 -43 -34 -81 -62 -86
-62 -4 0 -89 82 -189 183 l-183 182 15 49 c45 149 -9 333 -130 445 -36 33
-112 81 -129 81 -2 0 2 -21 10 -47 21 -69 18 -192 -7 -265 -42 -125 -118 -212
-238 -271 -56 -27 -77 -32 -161 -35 -68 -3 -113 0 -149 11 -28 8 -51 13 -51
11 0 -14 45 -89 71 -118 112 -129 309 -188 465 -141 l49 15 103 -103 c56 -56
102 -105 102 -108 0 -8 -207 -240 -364 -409 l-107 -114 98 -98 c54 -54 101
-98 106 -98 4 0 117 108 250 241 l241 240 63 -63 62 -63 -245 -245 -244 -245
94 -94 c86 -86 96 -93 113 -80 10 7 77 68 148 135 72 67 182 167 245 223 l114
101 109 -108 108 -108 -12 -47 c-6 -27 -10 -87 -7 -140 3 -77 9 -103 34 -157
38 -81 116 -167 185 -204 l52 -29 -7 24 c-23 79 -29 152 -17 221 41 249 269
420 508 380 37 -6 79 -14 91 -18 l24 -7 -22 44 c-34 66 -129 155 -203 189 -37
18 -96 35 -143 42 -69 9 -88 8 -154 -9 l-75 -19 -186 184 -187 185 66 86 c266
346 650 699 1110 1019 l73 51 -153 156 c-84 86 -161 161 -170 166 -15 8 -26
-2 -65 -57z"/>
<path d="M1960 2514 c-52 -48 -122 -112 -155 -144 -176 -166 -811 -709 -1190
-1015 -54 -44 -112 -91 -127 -105 -26 -23 -42 -71 -169 -533 -77 -280 -139
-511 -136 -513 2 -2 141 32 308 77 167 44 398 105 514 135 115 31 213 58 217
60 4 3 47 55 95 117 115 147 269 337 422 522 114 137 152 182 305 360 83 97
210 239 371 413 82 90 152 168 153 173 2 6 -38 52 -89 105 l-93 95 -841 -841
-840 -840 -63 63 -63 63 841 841 c462 462 840 842 840 844 0 2 -46 50 -103
107 l-102 102 -95 -86z"/>
</g>
</svg>
